<?xml version="1.0" encoding="UTF-8"?>
<svg version="1.1" xmlns="http://www.w3.org/2000/svg" width="128" height="128">
<path d="M0 0 C1.79244141 0.01740234 1.79244141 0.01740234 3.62109375 0.03515625 C5.41740234 0.04869141 5.41740234 0.04869141 7.25 0.0625 C8.17683594 0.07410156 9.10367188 0.08570312 10.05859375 0.09765625 C10.55359375 1.58265625 10.55359375 1.58265625 11.05859375 3.09765625 C12.85951097 7.3661764 15.76787728 10.08488772 19.12109375 13.203125 C21.02131215 15.06120146 22.59133078 16.88300621 24.05859375 19.09765625 C24.05859375 19.75765625 24.05859375 20.41765625 24.05859375 21.09765625 C26.86116246 19.25386104 29.63531949 17.41111193 32.33203125 15.4140625 C45.66578026 5.63457781 45.66578026 5.63457781 52.7265625 6.37890625 C55.05859375 7.09765625 55.05859375 7.09765625 57.05859375 9.09765625 C58.06656929 18.02543957 54.99524801 25.69267486 50.05859375 33.09765625 C51.79109375 33.25234375 51.79109375 33.25234375 53.55859375 33.41015625 C58.07030894 33.95800738 61.86465124 35.37514415 66.05859375 37.09765625 C62.16285774 38.39623492 59.96720949 37.5503955 55.99609375 36.59765625 C51.42322536 35.16415857 51.42322536 35.16415857 47.05859375 36.09765625 C47.05859375 35.43765625 47.05859375 34.77765625 47.05859375 34.09765625 C40.12859375 33.60265625 40.12859375 33.60265625 33.05859375 33.09765625 C32.56359375 34.08765625 32.56359375 34.08765625 32.05859375 35.09765625 C31.39859375 34.43765625 30.73859375 33.77765625 30.05859375 33.09765625 C25.58154665 32.19839284 21.52544962 32.13901595 17.05859375 33.09765625 C13.37611076 35.97522493 10.70709079 39.26520576 8.05859375 43.09765625 C9.17637146 45.41390686 10.30233467 47.7255023 11.43359375 50.03515625 C11.75070313 50.69451172 12.0678125 51.35386719 12.39453125 52.03320312 C14.01336744 55.71070432 14.01336744 55.71070432 17.05859375 58.09765625 C19.05669885 58.19415564 21.05816555 58.22746497 23.05859375 58.22265625 C24.13109375 58.22523437 25.20359375 58.2278125 26.30859375 58.23046875 C29.02041427 58.28489035 29.02041427 58.28489035 31.05859375 57.09765625 C33.103578 57.18546028 35.14604323 57.34007163 37.18359375 57.53515625 C38.27929688 57.63699219 39.375 57.73882812 40.50390625 57.84375 C41.34695312 57.92753906 42.19 58.01132813 43.05859375 58.09765625 C42.06859375 55.12765625 41.07859375 52.15765625 40.05859375 49.09765625 C38.57359375 49.59265625 38.57359375 49.59265625 37.05859375 50.09765625 C36.93484375 49.06640625 36.81109375 48.03515625 36.68359375 46.97265625 C36.11969561 43.47648779 35.27177316 40.41367998 34.05859375 37.09765625 C37.30376638 39.81361611 38.91754071 43.37183628 40.74609375 47.09765625 C41.06642578 47.72671875 41.38675781 48.35578125 41.71679688 49.00390625 C43.15171277 51.89209518 44.05859375 53.83012486 44.05859375 57.09765625 C46.99653195 56.45376562 49.93394475 55.80762846 52.87109375 55.16015625 C53.70447266 54.97775391 54.53785156 54.79535156 55.39648438 54.60742188 C56.19892578 54.43017578 57.00136719 54.25292969 57.828125 54.0703125 C58.56651611 53.90797119 59.30490723 53.74562988 60.06567383 53.57836914 C62.2468002 53.08212017 62.2468002 53.08212017 65.05859375 52.09765625 C66.27729304 49.59318109 66.27729304 49.59318109 67.05859375 47.09765625 C69.03859375 47.09765625 71.01859375 47.09765625 73.05859375 47.09765625 C72.72859375 45.44765625 72.39859375 43.79765625 72.05859375 42.09765625 C72.71859375 42.42765625 73.37859375 42.75765625 74.05859375 43.09765625 C74.08559805 44.55588837 74.10499162 46.014263 74.12109375 47.47265625 C74.13269531 48.28476563 74.14429687 49.096875 74.15625 49.93359375 C74.05859375 52.09765625 74.05859375 52.09765625 73.05859375 54.09765625 C70.08485935 55.18802553 69.17451874 55.13629791 66.05859375 54.09765625 C63.54978193 54.64555768 61.14295959 55.25573686 58.68359375 55.97265625 C54.49757234 57.15815059 50.34409141 58.31997907 46.05859375 59.09765625 C46.41953125 60.19722656 46.78046875 61.29679687 47.15234375 62.4296875 C52.63924452 79.68176973 52.63924452 79.68176973 51.05859375 87.09765625 C49.7265625 89.3515625 49.7265625 89.3515625 48.05859375 91.09765625 C44.58927281 91.77791526 42.253728 91.75258982 39.10546875 90.02734375 C31.98696741 84.89865972 25.58025418 78.63375696 21.05859375 71.09765625 C16.34055764 72.42460391 13.51015616 75.26408473 9.9921875 78.49609375 C8.05859375 80.09765625 8.05859375 80.09765625 5.12109375 81.22265625 C4.44046875 81.51140625 3.75984375 81.80015625 3.05859375 82.09765625 C2.39694181 84.61908212 2.39694181 84.61908212 2.05859375 87.09765625 C-0.04529194 87.15167899 -2.14957339 87.19045881 -4.25390625 87.22265625 C-5.42566406 87.24585937 -6.59742188 87.2690625 -7.8046875 87.29296875 C-10.94140625 87.09765625 -10.94140625 87.09765625 -13.94140625 85.09765625 C-16.59741907 75.96515896 -11.29411097 66.02579699 -6.94140625 58.09765625 C-8.1015625 57.85982422 -8.1015625 57.85982422 -9.28515625 57.6171875 C-16.97763006 55.8939972 -23.29131208 53.74775042 -28.94140625 48.09765625 C-29.06640625 44.78515625 -29.06640625 44.78515625 -27.94140625 41.09765625 C-22.84147585 36.51613898 -16.46002977 34.81217635 -9.94140625 33.28515625 C-8.63623047 32.9612793 -8.63623047 32.9612793 -7.3046875 32.63085938 C-5.18667353 32.1071746 -3.06444258 31.60059328 -0.94140625 31.09765625 C-1.21855469 30.19144531 -1.49570312 29.28523438 -1.78125 28.3515625 C-7.25657446 9.9381048 -7.25657446 9.9381048 -3.94140625 1.09765625 C-2.94140625 0.09765625 -2.94140625 0.09765625 0 0 Z M-2.94140625 2.09765625 C-6.23072967 11.96562651 -1.97099402 21.6734743 1.05859375 31.09765625 C3.12043008 31.17916369 5.18320724 31.23707565 7.24609375 31.28515625 C8.96892578 31.33736328 8.96892578 31.33736328 10.7265625 31.390625 C16.80389078 30.85627609 19.99764566 27.39065852 24.05859375 23.09765625 C22.50411437 19.49560995 20.31114575 16.92895522 17.68359375 14.03515625 C16.91273437 13.17792969 16.141875 12.32070313 15.34765625 11.4375 C11.73688611 7.74662746 9.22484642 5.81519134 4.05859375 5.09765625 C3.72859375 3.77765625 3.39859375 2.45765625 3.05859375 1.09765625 C-0.71779945 0.79951385 -0.71779945 0.79951385 -2.94140625 2.09765625 Z M20.05859375 29.09765625 C20.05859375 29.42765625 20.05859375 29.75765625 20.05859375 30.09765625 C23.02859375 30.09765625 25.99859375 30.09765625 29.05859375 30.09765625 C29.05859375 29.43765625 29.05859375 28.77765625 29.05859375 28.09765625 C29.71859375 29.08765625 30.37859375 30.07765625 31.05859375 31.09765625 C32.9830079 31.60297491 32.9830079 31.60297491 35.19140625 31.609375 C35.99707031 31.64482422 36.80273438 31.68027344 37.6328125 31.71679688 C38.47457031 31.73935547 39.31632812 31.76191406 40.18359375 31.78515625 C41.45783203 31.83639648 41.45783203 31.83639648 42.7578125 31.88867188 C44.8576048 31.97124798 46.95807939 32.03612603 49.05859375 32.09765625 C54.9033231 21.73736511 54.9033231 21.73736511 56.05859375 10.09765625 C54.22383627 7.87981183 54.22383627 7.87981183 51.55859375 7.66015625 C39.17731191 9.20781648 27.96496539 20.03096386 20.05859375 29.09765625 Z M3.05859375 33.09765625 C3.61004286 37.17837967 3.97190171 38.01096421 7.05859375 41.09765625 C9.03859375 38.45765625 11.01859375 35.81765625 13.05859375 33.09765625 C9.75859375 33.09765625 6.45859375 33.09765625 3.05859375 33.09765625 Z M-26.94140625 43.09765625 C-26.68190136 46.21171496 -26.21057788 47.7913575 -24.12890625 50.16015625 C-18.60090255 53.52031536 -10.53410749 57.32570844 -3.94140625 56.09765625 C-1.61823573 53.76132893 -1.61823573 53.76132893 0.30859375 50.72265625 C0.994375 49.72492188 1.68015625 48.7271875 2.38671875 47.69921875 C4.02957644 45.2451333 4.02957644 45.2451333 5.05859375 43.09765625 C4.29137907 40.85349197 4.29137907 40.85349197 3.12109375 38.47265625 C2.74082031 37.65539063 2.36054687 36.838125 1.96875 35.99609375 C1.66839844 35.36960938 1.36804688 34.743125 1.05859375 34.09765625 C-8.78722414 33.58936355 -19.10495258 37.34026171 -26.94140625 43.09765625 Z M5.05859375 45.09765625 C3.83131394 46.69282569 2.6515287 48.32470257 1.49609375 49.97265625 C0.85542969 50.87757812 0.21476562 51.7825 -0.4453125 52.71484375 C-2.11865457 54.91103192 -2.11865457 54.91103192 -1.94140625 57.09765625 C2.7306058 58.30333678 7.27355667 58.19148051 12.05859375 58.09765625 C10.6456728 53.27017635 8.62885221 49.38142035 6.05859375 45.09765625 C5.72859375 45.09765625 5.39859375 45.09765625 5.05859375 45.09765625 Z M-3.94140625 58.09765625 C-9.8751584 69.08093524 -9.8751584 69.08093524 -12.94140625 81.09765625 C-12.61140625 82.08765625 -12.28140625 83.07765625 -11.94140625 84.09765625 C-9.96140625 84.42765625 -7.98140625 84.75765625 -5.94140625 85.09765625 C-5.57015625 84.43765625 -5.19890625 83.77765625 -4.81640625 83.09765625 C-3.88828125 82.10765625 -3.88828125 82.10765625 -2.94140625 81.09765625 C-1.57048828 81.15179688 -1.57048828 81.15179688 -0.171875 81.20703125 C3.90403574 81.06903185 5.43525714 79.831068 8.62109375 77.34765625 C9.52988281 76.6515625 10.43867187 75.95546875 11.375 75.23828125 C15.22005708 72.17204379 15.22005708 72.17204379 19.05859375 69.09765625 C17.27911737 64.14009787 17.27911737 64.14009787 14.05859375 60.09765625 C11.02848643 59.302095 7.98868157 59.07912449 4.87109375 58.84765625 C4.02611328 58.7703125 3.18113281 58.69296875 2.31054688 58.61328125 C0.22797826 58.42502646 -1.85659332 58.25917081 -3.94140625 58.09765625 Z M17.05859375 60.09765625 C17.71859375 61.74765625 18.37859375 63.39765625 19.05859375 65.09765625 C20.37859375 65.09765625 21.69859375 65.09765625 23.05859375 65.09765625 C25.3273691 62.67884696 25.3273691 62.67884696 27.05859375 60.09765625 C23.75859375 60.09765625 20.45859375 60.09765625 17.05859375 60.09765625 Z M34.87109375 59.0703125 C30.38917538 59.29247656 28.2502886 60.4684614 25.05859375 63.66015625 C24.04033117 64.7897913 23.03370536 65.93056954 22.05859375 67.09765625 C23.49995267 71.63002189 26.04071782 74.69335562 29.24609375 78.09765625 C29.73932129 78.62584961 30.23254883 79.15404297 30.74072266 79.69824219 C36.79760444 86.2997315 36.79760444 86.2997315 44.87109375 89.53515625 C47.25793913 89.268111 47.25793913 89.268111 49.05859375 87.09765625 C50.68089985 77.22720441 47.30730162 68.24044839 44.05859375 59.09765625 C36.3139129 59.08834774 36.3139129 59.08834774 34.87109375 59.0703125 Z " fill="#2E75DA" transform="translate(41.94140625,18.90234375)"/>
<path d="M0 0 C0.8971875 0.5259375 0.8971875 0.5259375 1.8125 1.0625 C1.8125 5.55363411 1.76484815 9.65788982 0.8125 14.0625 C-0.8375 14.3925 -2.4875 14.7225 -4.1875 15.0625 C-4.5175 14.0725 -4.8475 13.0825 -5.1875 12.0625 C-6.610625 12.3409375 -6.610625 12.3409375 -8.0625 12.625 C-11.1875 13.0625 -11.1875 13.0625 -13.1875 12.0625 C-13.23004356 10.06295254 -13.22830783 8.06208364 -13.1875 6.0625 C-12.1875 5.0625 -12.1875 5.0625 -9.75 4.8125 C-8.4815625 4.93625 -8.4815625 4.93625 -7.1875 5.0625 C-6.1975 6.5475 -6.1975 6.5475 -5.1875 8.0625 C-5.09725147 6.0371176 -5.09725147 6.0371176 -5.75 4.0625 C-6.1875 2.0625 -6.1875 2.0625 -5.1875 0.0625 C-2.1875 -0.9375 -2.1875 -0.9375 0 0 Z " fill="#2E75DA" transform="translate(70.1875,55.9375)"/>
<path d="M0 0 C0 0.99 0 1.98 0 3 C-0.99 3.66 -1.98 4.32 -3 5 C-1.125 1.125 -1.125 1.125 0 0 Z " fill="#2E75DA" transform="translate(77,70)"/>
<path d="M0 0 C0 0.99 0 1.98 0 3 C-0.99 3.495 -0.99 3.495 -2 4 C-1.34 2.68 -0.68 1.36 0 0 Z " fill="#2E75DA" transform="translate(84,61)"/>
<path d="M0 0 C0.99 0.33 1.98 0.66 3 1 C2.01 1 1.02 1 0 1 C0 0.67 0 0.34 0 0 Z " fill="#2E75DA" transform="translate(110,58)"/>
<path d="M0 0 C0 3 0 3 0 3 Z " fill="#2E75DA" transform="translate(86,58)"/>
<path d="M0 0 C0 3 0 3 0 3 Z " fill="#2E75DB" transform="translate(88,55)"/>
<path d="M0 0 C0.99 0.495 0.99 0.495 2 1 C1.67 1.66 1.34 2.32 1 3 C0.67 2.01 0.34 1.02 0 0 Z " fill="#2E75DA" transform="translate(68,43)"/>
<path d="M0 0 C2 1 2 1 2 1 Z " fill="#2E75DB" transform="translate(108,57)"/>
<path d="" fill="#2E75DA" transform="translate(0,0)"/>
<path d="" fill="#2E76DB" transform="translate(0,0)"/>
<path d="" fill="#2E76DB" transform="translate(0,0)"/>
<path d="" fill="#2E75DB" transform="translate(0,0)"/>
</svg>
